<svg width="16" height="13" viewBox="0 0 16 13" fill="none" xmlns="http://www.w3.org/2000/svg">
<path opacity="0.4" d="M12.1298 7.5468C11.3989 8.73755 10.3732 9.59937 9.21851 10.129C9.71144 10.7345 9.9991 11.5014 9.9991 12.3194C9.9991 12.6856 9.69802 12.962 9.35363 12.9605C8.25007 12.9556 7.40784 12.8605 6.77199 12.6705C6.12875 12.4784 5.65725 12.1768 5.36054 11.7363C5.35581 11.7293 5.35123 11.7222 5.34683 11.7149L4.64841 10.5683C2.73594 10.1115 0.992207 8.84364 0.0498257 6.77119C-0.0166086 6.62509 -0.0166086 6.4574 0.0498257 6.3113C2.3381 1.27902 9.30799 1.00626 12.1038 5.49303C12.2906 5.27699 12.5148 5.04909 12.7706 4.83363C13.405 4.29934 14.2996 3.78678 15.369 3.78678C15.5942 3.78678 15.7971 3.92275 15.8828 4.13104C15.9684 4.33933 15.9198 4.57872 15.7597 4.73714C15.5459 4.94872 15.1755 5.57862 14.9714 6.3608C14.7681 7.1401 14.7728 7.90701 15.1033 8.45221C15.2073 8.62374 15.2108 8.83801 15.1123 9.01279C15.0139 9.18758 14.8289 9.29572 14.6283 9.29572C14.2433 9.29572 13.8819 9.1178 13.5954 8.92967C13.296 8.73304 13.0046 8.47544 12.7457 8.2176C12.5217 7.99453 12.3116 7.76064 12.1298 7.5468Z" fill="#878787"/>
<path fill-rule="evenodd" clip-rule="evenodd" d="M3.52686 5.55505C4.03635 5.55505 4.44971 5.97048 4.44971 6.48181C4.44945 6.99293 4.0362 7.40759 3.52686 7.40759H3.52002C3.01087 7.40736 2.5984 6.99278 2.59814 6.48181C2.59814 5.97062 3.01072 5.55528 3.52002 5.55505H3.52686ZM8.93115 0.000364501C9.10717 -0.00253034 9.31866 0.0106479 9.50635 0.0823958C9.6042 0.119845 9.7274 0.185964 9.82959 0.304075C9.94086 0.432797 10.0015 0.594252 10.0015 0.765013C10.0015 1.09782 9.95344 1.42239 9.86377 1.73083C9.80836 1.92143 9.78053 2.01682 9.69189 2.05993C9.60308 2.10303 9.49788 2.06064 9.28857 1.97595C8.05592 1.47726 6.71012 1.30061 5.39795 1.44665C5.35605 1.45102 5.32715 1.40558 5.34912 1.36951C5.35351 1.36231 5.35809 1.35501 5.36279 1.34802C5.47886 1.17581 5.64944 1.04333 5.79932 0.945677C5.95948 0.841324 6.14694 0.743821 6.34326 0.655638C6.73664 0.478959 7.20718 0.320775 7.65771 0.204466C8.1025 0.0896607 8.56271 0.00644057 8.93115 0.000364501Z" fill="#002566"/>
</svg>
