<svg width="14" height="13" viewBox="0 0 14 13" fill="none" xmlns="http://www.w3.org/2000/svg">
<path opacity="0.4" fill-rule="evenodd" clip-rule="evenodd" d="M6.82495 9.80503C9.33381 9.80503 11.5856 10.8337 13.1248 12.4642H0.525146C2.06429 10.8337 4.31618 9.80508 6.82495 9.80503ZM12.406 2.51011C12.406 2.51011 12.6318 4.87356 11.5007 5.94761C10.7512 6.65907 9.53638 6.65908 8.78687 5.94761C8.03728 5.23579 8.03727 4.0813 8.78687 3.36948C9.91802 2.2957 12.406 2.51011 12.406 2.51011ZM1.24585 0.518898C1.24585 0.518898 4.14895 0.268765 5.46851 1.52183C6.34286 2.35224 6.34281 3.69823 5.46851 4.52866C4.59398 5.35912 3.17604 5.35912 2.30151 4.52866C0.98217 3.27552 1.24585 0.518898 1.24585 0.518898Z" fill="#33FF9C"/>
<path fill-rule="evenodd" clip-rule="evenodd" d="M1.7139 0.000881863C2.02223 -0.00323251 2.44873 0.00575761 2.92093 0.0555694C3.8363 0.152152 5.04818 0.416183 5.84086 1.16885C6.86715 2.14343 6.9153 3.69216 5.99027 4.72354C6.02059 4.76779 6.05718 4.81697 6.09379 4.87491C6.23824 5.10353 6.42616 5.43883 6.61234 5.88076C6.7645 6.24197 6.91292 6.67454 7.03812 7.17666C7.1122 7.05261 7.18701 6.9359 7.26273 6.82803C7.50196 6.48727 7.74194 6.22533 7.92386 6.04678C7.98219 5.98955 8.0361 5.94158 8.08109 5.90127C7.48048 5.00371 7.59132 3.80079 8.41605 3.01748C9.11437 2.35435 10.1748 2.12509 10.9629 2.0419C11.3718 1.99876 11.7413 1.99146 12.0078 1.99502C12.1414 1.99681 12.2504 2.00164 12.3272 2.00576C12.3656 2.00783 12.3965 2.0101 12.418 2.01162L12.4434 2.01358H12.4541L12.5459 2.03018C12.724 2.07682 12.8642 2.20963 12.9131 2.37881L12.9297 2.46573V2.46866L12.9307 2.47647L12.9327 2.49991C12.9343 2.52025 12.9363 2.54946 12.9385 2.58584C12.9429 2.65876 12.9474 2.76258 12.9493 2.88955C12.953 3.14269 12.9459 3.4935 12.9004 3.88174C12.8128 4.63009 12.5713 5.63658 11.8731 6.29971C11.0434 7.08762 9.76634 7.19003 8.81937 6.6083C8.78215 6.6411 8.73448 6.68546 8.67875 6.74014C8.53265 6.88351 8.33478 7.09874 8.13675 7.38076C7.80375 7.8551 7.4756 8.50952 7.37894 9.32315C9.81818 9.46301 11.9944 10.5194 13.5157 12.1308C13.7091 12.3357 13.6913 12.651 13.4756 12.8349C13.2598 13.0186 12.928 13.0017 12.7344 12.7968C11.2916 11.2684 9.18007 10.3037 6.82523 10.3036C4.47033 10.3036 2.35886 11.2684 0.916052 12.7968C0.722514 13.0018 0.390743 13.0187 0.174841 12.8349C-0.041016 12.6511 -0.0596983 12.3358 0.133825 12.1308C1.65865 10.5155 3.84185 9.4581 6.28812 9.32217C6.22908 7.97024 5.93092 6.94686 5.63773 6.25088C5.47399 5.86223 5.31138 5.57433 5.1934 5.3876C5.18536 5.37488 5.17659 5.36324 5.16898 5.35147C4.12618 5.87059 2.80715 5.71403 1.9307 4.88174C1.13822 4.12901 0.859549 2.97846 0.757849 2.10928C0.705379 1.66075 0.696869 1.2556 0.701208 0.962796C0.703386 0.815992 0.708895 0.696248 0.713903 0.61221C0.71641 0.570165 0.718908 0.536887 0.720739 0.513577L0.722693 0.486233L0.723669 0.478421V0.474515C0.746614 0.234838 0.947837 0.044155 1.20023 0.0223662H1.21195L1.24027 0.0194366C1.26482 0.017697 1.30048 0.0159572 1.34476 0.0135772C1.43325 0.00882486 1.55945 0.00294765 1.7139 0.000881863ZM11.9004 2.99209C11.676 2.99173 11.3892 3.00039 11.0791 3.03311C10.3404 3.11106 9.59085 3.31175 9.15824 3.72256C8.61413 4.23957 8.61421 5.07757 9.15824 5.59463C9.7028 6.11176 10.5863 6.11176 11.1309 5.59463C11.5633 5.18378 11.7744 4.47271 11.8565 3.77139C11.8909 3.47712 11.9008 3.20512 11.9004 2.99209ZM1.75101 0.997952C1.74785 1.25913 1.7566 1.61252 1.80179 1.99893C1.89802 2.82129 2.14698 3.67633 2.67386 4.17666C3.3433 4.81225 4.42821 4.81219 5.09769 4.17666C5.76719 3.5409 5.76719 2.50969 5.09769 1.87393C4.57083 1.37396 3.67133 1.13718 2.8057 1.0458C2.39873 1.00286 2.02612 0.99495 1.75101 0.997952Z" fill="#006635"/>
</svg>
