<svg width="24" height="24" viewBox="0 0 24 24" fill="none" xmlns="http://www.w3.org/2000/svg">
<g clip-path="url(#clip0_2470_1509)">
<path d="M23.0279 12.2244C23.0279 11.2412 22.9495 10.5236 22.7799 9.77954H11.7495V14.2175H18.2241C18.0936 15.3204 17.3887 16.9814 15.8222 18.0975L15.8003 18.246L19.2879 20.9962L19.5295 21.0208C21.7486 18.9346 23.0279 15.8652 23.0279 12.2244Z" fill="#4285F4"/>
<path d="M11.7496 23.9176C14.9216 23.9176 17.5845 22.8545 19.5296 21.0209L15.8223 18.0976C14.8302 18.8018 13.4987 19.2934 11.7496 19.2934C8.64282 19.2934 6.006 17.2074 5.06605 14.324L4.92827 14.3359L1.30182 17.1927L1.25439 17.3269C3.18632 21.2334 7.15464 23.9176 11.7496 23.9176Z" fill="#34A853"/>
<path d="M5.06599 14.324C4.81797 13.58 4.67444 12.7826 4.67444 11.9589C4.67444 11.135 4.81797 10.3378 5.05294 9.59366L5.04637 9.43519L1.37448 6.53247L1.25434 6.59064C0.458104 8.21174 0.0012207 10.0322 0.0012207 11.9589C0.0012207 13.8855 0.458104 15.7059 1.25434 17.327L5.06599 14.324Z" fill="#FBBC05"/>
<path d="M11.7496 4.62403C13.9556 4.62403 15.4437 5.59401 16.2922 6.40461L19.6078 3.10928C17.5715 1.1826 14.9216 0 11.7496 0C7.15464 0 3.18632 2.68406 1.25439 6.59056L5.05299 9.59359C6.00599 6.7102 8.64281 4.62403 11.7496 4.62403Z" fill="#EB4335"/>
</g>
<defs>
<clipPath id="clip0_2470_1509">
<rect width="23.04" height="24" fill="white"/>
</clipPath>
</defs>
</svg>
