<svg width="24" height="24" viewBox="0 0 24 24" fill="none" xmlns="http://www.w3.org/2000/svg">
<path fill-rule="evenodd" clip-rule="evenodd" d="M11.9996 1.25C16.4554 1.25 20.0719 4.84186 20.0719 9.27734C20.072 10.3089 20.1421 11.0873 20.6178 11.7871C20.6839 11.883 20.771 12.0036 20.8668 12.1348C21.0333 12.3627 21.2248 12.6241 21.3697 12.8506C21.6255 13.2503 21.8756 13.7323 21.9615 14.2939C22.2418 16.1267 20.9496 17.314 19.6627 17.8457C18.8261 18.1914 17.9302 18.4714 16.9977 18.6895C17.004 18.7936 16.9947 18.9004 16.9664 19.0068C16.3894 21.1782 14.3699 22.7499 12.0006 22.75C9.63118 22.75 7.61087 21.1783 7.03379 19.0068C7.00556 18.9005 6.99524 18.7936 7.00157 18.6895C6.06936 18.4714 5.17382 18.1912 4.3375 17.8457C3.0506 17.314 1.75836 16.1267 2.03867 14.2939C2.12463 13.7323 2.37469 13.2503 2.63047 12.8506C2.77541 12.6241 2.96685 12.3627 3.1334 12.1348C3.22926 12.0036 3.31629 11.883 3.38242 11.7871C3.85804 11.0873 3.92822 10.3088 3.92832 9.27734C3.92836 4.84202 7.54398 1.25021 11.9996 1.25ZM14.8043 19.0771C12.9588 19.305 11.0404 19.305 9.19492 19.0771C9.70169 20.0577 10.7564 20.75 12.0006 20.75C13.2444 20.7499 14.2975 20.0573 14.8043 19.0771Z" fill="#B3B3B3"/>
<path fill-rule="evenodd" clip-rule="evenodd" d="M11.9996 1.25C16.4554 1.25 20.0719 4.84186 20.0719 9.27734C20.072 10.3089 20.1421 11.0873 20.6178 11.7871C20.6839 11.883 20.771 12.0036 20.8668 12.1348C21.0333 12.3627 21.2248 12.6241 21.3697 12.8506C21.6255 13.2503 21.8756 13.7323 21.9615 14.2939C22.2418 16.1267 20.9496 17.314 19.6627 17.8457C18.8261 18.1914 17.9302 18.4714 16.9977 18.6895C17.004 18.7936 16.9947 18.9004 16.9664 19.0068C16.3894 21.1782 14.3699 22.7499 12.0006 22.75C9.63118 22.75 7.61087 21.1783 7.03379 19.0068C7.00556 18.9005 6.99524 18.7936 7.00157 18.6895C6.06936 18.4714 5.17382 18.1912 4.3375 17.8457C3.0506 17.314 1.75836 16.1267 2.03867 14.2939C2.12463 13.7323 2.37469 13.2503 2.63047 12.8506C2.77541 12.6241 2.96685 12.3627 3.1334 12.1348C3.22926 12.0036 3.31629 11.883 3.38242 11.7871C3.85804 11.0873 3.92822 10.3088 3.92832 9.27734C3.92836 4.84202 7.54398 1.25021 11.9996 1.25ZM14.8043 19.0771C12.9588 19.305 11.0404 19.305 9.19492 19.0771C9.70169 20.0577 10.7564 20.75 12.0006 20.75C13.2444 20.7499 14.2975 20.0573 14.8043 19.0771Z" fill="black" fill-opacity="0.2"/>
</svg>
