<svg width="24" height="24" viewBox="0 0 24 24" fill="none" xmlns="http://www.w3.org/2000/svg">
<path fill-rule="evenodd" clip-rule="evenodd" d="M16.8115 1.93006C18.1881 2.11515 19.2804 2.50219 20.1386 3.36038C20.9968 4.21858 21.3838 5.31084 21.5689 6.68749C21.7366 7.93496 21.7486 9.50771 21.7494 11.48L21.7495 12.0567C21.7495 14.2474 21.7495 15.9681 21.5689 17.3115C21.3838 18.6881 20.9968 19.7804 20.1386 20.6386C19.2804 21.4968 18.1881 21.8838 16.8115 22.0689C15.564 22.2366 13.9913 22.2486 12.0189 22.2494L11.4423 22.2495C9.25157 22.2495 7.5309 22.2495 6.18749 22.0689C4.81083 21.8838 3.71858 21.4968 2.86038 20.6386C2.00218 19.7804 1.61515 18.6881 1.43006 17.3115C1.27527 16.16 1.25316 14.7313 1.25 12.967V11.0319C1.25316 9.26765 1.27527 7.83899 1.43006 6.68749C1.61515 5.31084 2.00218 4.21858 2.86038 3.36038C3.71858 2.50218 4.81084 2.11515 6.18749 1.93006C7.339 1.77527 8.76766 1.75316 10.5319 1.75H12.467C14.2313 1.75316 15.66 1.77527 16.8115 1.93006ZM14.9995 12.9995C13.9743 12.9995 13.0933 13.6165 12.7075 14.4995H6.49947C5.94718 14.4995 5.49947 14.9472 5.49947 15.4995C5.49947 16.0518 5.94718 16.4995 6.49947 16.4995H12.7075C13.0933 17.3825 13.9743 17.9995 14.9995 17.9995C16.3802 17.9995 17.4995 16.8802 17.4995 15.4995C17.4995 14.1188 16.3802 12.9995 14.9995 12.9995ZM7.99947 5.99947C6.61876 5.99947 5.49947 7.11876 5.49947 8.49947C5.49947 9.88018 6.61876 10.9995 7.99947 10.9995C9.02467 10.9995 9.90567 10.3825 10.2915 9.49947H16.4995C17.0518 9.49947 17.4995 9.05175 17.4995 8.49947C17.4995 7.94719 17.0518 7.49947 16.4995 7.49947H10.2915C9.90567 6.61652 9.02467 5.99947 7.99947 5.99947Z" fill="#CCCCCC"/>
</svg>
