<svg width="78" height="41" viewBox="0 0 78 41" fill="none" xmlns="http://www.w3.org/2000/svg">
<path d="M65.4238 14.0898C65.4238 14.0898 70.441 13.626 73.5088 14.3721C74.5864 14.6341 75.5295 14.8216 76.2031 15.2705C76.8768 15.7196 78 16.6184 78 18.1904C77.9999 19.7623 77.6085 21.4691 76.6523 23.7461C75.2954 26.9774 74.2462 28.7459 71.9365 31.3818C70.0935 33.4852 68.8746 34.5475 66.5469 36.0977C63.7378 37.9683 61.9308 38.7603 58.6865 39.6904C55.7063 40.5449 53.9273 40.8397 50.8271 40.8135C47.9003 40.7887 46.2451 40.4412 43.416 39.6904C40.4096 38.8926 38.6749 38.3671 36.0049 36.7715C33.2288 35.1124 31.8778 33.788 29.7168 31.3818C28.2519 29.7507 27.5279 28.738 26.3486 26.8896C25.5881 25.6975 24.5518 23.7461 24.5518 23.7461C24.5518 23.7461 26.2841 24.8023 27.4717 25.3184C29.7929 26.3268 31.2414 26.6384 33.7598 26.8896C36.5573 27.1687 38.2253 27.1523 40.9453 26.4414C43.6776 25.7272 45.0406 24.7567 47.458 23.2969C50.1906 21.6467 51.5085 20.3746 54.1953 18.6396C56.3532 17.2463 57.4061 16.1179 59.8096 15.2119C61.8905 14.4276 65.3861 14.0934 65.4238 14.0898ZM11.5781 14.2568C15.9189 12.7953 19.3803 15.2075 20.2764 16.7646C21.1724 18.3218 20.5937 20.4687 20.5937 20.4687C13.919 14.7231 6.13281 19.2031 6.13281 19.2031C14.0361 16.7279 20.3923 20.4868 24.3281 23.5801L19.9316 22.8691C19.6341 23.2166 19.1299 23.9292 18.5166 24.5137C12.9301 29.8381 0.0268665 17.5763 0 17.5508C1.67466 18.6599 7.23722 15.7185 11.5781 14.2568ZM33.4678 0C33.4748 0.0447038 36.2224 17.6231 28.668 19.1914C27.8386 19.3635 26.9658 19.3737 26.5107 19.4209L24.5957 23.4414C24.2887 18.445 24.8104 11.0796 31.3398 5.98535C31.2981 6.00525 23.2299 9.86554 24.1592 18.6006C24.1592 18.6006 22.0646 17.8557 21.293 16.2334C20.5215 14.6109 20.5044 10.3914 24.1748 7.65137C27.8453 4.91137 33.428 2.00824 33.4678 0ZM68.5674 18.8643C67.5755 18.8646 66.7715 19.6691 66.7715 20.6611C66.7717 21.6529 67.5756 22.4567 68.5674 22.457C69.5594 22.457 70.364 21.6531 70.3643 20.6611C70.3643 19.6689 69.5596 18.8643 68.5674 18.8643Z" fill="url(#paint0_linear_2253_10485)"/>
<defs>
<linearGradient id="paint0_linear_2253_10485" x1="11.8615" y1="1.07284" x2="31.7652" y2="32.5058" gradientUnits="userSpaceOnUse">
<stop offset="0.337092" stop-color="#00E677"/>
<stop offset="0.816357" stop-color="white"/>
</linearGradient>
</defs>
</svg>
